<svg width="137" height="162" viewBox="0 0 137 162" fill="none" xmlns="http://www.w3.org/2000/svg">
<path d="M68.5 151.771C106.055 151.771 136.5 121.429 136.5 83.9998C136.5 46.5709 106.055 16.2288 68.5 16.2288C30.9446 16.2288 0.5 46.5709 0.5 83.9998C0.5 121.429 30.9446 151.771 68.5 151.771Z" fill="#D1E2FF"/>
<g filter="url(#filter0_d_388_1995)">
<path d="M107.487 55.0842H29.5138C27.0101 55.0842 24.9805 57.107 24.9805 59.6023V154.482C24.9805 156.977 27.0101 159 29.5138 159H107.487C109.991 159 112.02 156.977 112.02 154.482V59.6023C112.02 57.107 109.991 55.0842 107.487 55.0842Z" fill="#F4F4F5"/>
</g>
<path d="M59.434 68.6384H35.8606C34.3584 68.6384 33.1406 69.8521 33.1406 71.3493C33.1406 72.8464 34.3584 74.0601 35.8606 74.0601H59.434C60.9362 74.0601 62.154 72.8464 62.154 71.3493C62.154 69.8521 60.9362 68.6384 59.434 68.6384Z" fill="#A3C5FF"/>
<path d="M75.754 80.3853H35.8606C34.3584 80.3853 33.1406 81.5989 33.1406 83.0961C33.1406 84.5933 34.3584 85.8069 35.8606 85.8069H75.754C77.2562 85.8069 78.474 84.5933 78.474 83.0961C78.474 81.5989 77.2562 80.3853 75.754 80.3853Z" fill="#D1E2FF"/>
<path d="M59.434 93.0359H35.8606C34.3584 93.0359 33.1406 94.2496 33.1406 95.7467C33.1406 97.2439 34.3584 98.4576 35.8606 98.4576H59.434C60.9362 98.4576 62.154 97.2439 62.154 95.7467C62.154 94.2496 60.9362 93.0359 59.434 93.0359Z" fill="#A3C5FF"/>
<path d="M75.754 104.783H35.8606C34.3584 104.783 33.1406 105.996 33.1406 107.494C33.1406 108.991 34.3584 110.204 35.8606 110.204H75.754C77.2562 110.204 78.474 108.991 78.474 107.494C78.474 105.996 77.2562 104.783 75.754 104.783Z" fill="#D1E2FF"/>
<path d="M59.434 117.434H35.8606C34.3584 117.434 33.1406 118.647 33.1406 120.144C33.1406 121.642 34.3584 122.855 35.8606 122.855H59.434C60.9362 122.855 62.154 121.642 62.154 120.144C62.154 118.647 60.9362 117.434 59.434 117.434Z" fill="#A3C5FF"/>
<path d="M75.754 129.18H35.8606C34.3584 129.18 33.1406 130.394 33.1406 131.891C33.1406 133.388 34.3584 134.602 35.8606 134.602H75.754C77.2562 134.602 78.474 133.388 78.474 131.891C78.474 130.394 77.2562 129.18 75.754 129.18Z" fill="#D1E2FF"/>
<g filter="url(#filter1_d_388_1995)">
<path d="M107.487 9H29.5138C27.0101 9 24.9805 11.0228 24.9805 13.5181V40.6265C24.9805 43.1218 27.0101 45.1446 29.5138 45.1446H107.487C109.991 45.1446 112.02 43.1218 112.02 40.6265V13.5181C112.02 11.0228 109.991 9 107.487 9Z" fill="#478BFF"/>
</g>
<path d="M59.434 18.9397H35.8606C34.3584 18.9397 33.1406 20.1534 33.1406 21.6505C33.1406 23.1477 34.3584 24.3614 35.8606 24.3614H59.434C60.9362 24.3614 62.154 23.1477 62.154 21.6505C62.154 20.1534 60.9362 18.9397 59.434 18.9397Z" fill="#FEEB1B"/>
<path d="M75.754 30.6865H35.8606C34.3584 30.6865 33.1406 31.9002 33.1406 33.3974C33.1406 34.8945 34.3584 36.1082 35.8606 36.1082H75.754C77.2562 36.1082 78.474 34.8945 78.474 33.3974C78.474 31.9002 77.2562 30.6865 75.754 30.6865Z" fill="white"/>
<defs>
<filter id="filter0_d_388_1995" x="18.9805" y="46.0842" width="99.04" height="115.916" filterUnits="userSpaceOnUse" color-interpolation-filters="sRGB">
<feFlood flood-opacity="0" result="BackgroundImageFix"/>
<feColorMatrix in="SourceAlpha" type="matrix" values="0 0 0 0 0 0 0 0 0 0 0 0 0 0 0 0 0 0 127 0" result="hardAlpha"/>
<feOffset dy="-3"/>
<feGaussianBlur stdDeviation="3"/>
<feColorMatrix type="matrix" values="0 0 0 0 0.788235 0 0 0 0 0.803922 0 0 0 0 0.85098 0 0 0 0.349 0"/>
<feBlend mode="normal" in2="BackgroundImageFix" result="effect1_dropShadow_388_1995"/>
<feBlend mode="normal" in="SourceGraphic" in2="effect1_dropShadow_388_1995" result="shape"/>
</filter>
<filter id="filter1_d_388_1995" x="18.9805" y="0" width="99.04" height="48.1445" filterUnits="userSpaceOnUse" color-interpolation-filters="sRGB">
<feFlood flood-opacity="0" result="BackgroundImageFix"/>
<feColorMatrix in="SourceAlpha" type="matrix" values="0 0 0 0 0 0 0 0 0 0 0 0 0 0 0 0 0 0 127 0" result="hardAlpha"/>
<feOffset dy="-3"/>
<feGaussianBlur stdDeviation="3"/>
<feColorMatrix type="matrix" values="0 0 0 0 0.788235 0 0 0 0 0.803922 0 0 0 0 0.85098 0 0 0 0.349 0"/>
<feBlend mode="normal" in2="BackgroundImageFix" result="effect1_dropShadow_388_1995"/>
<feBlend mode="normal" in="SourceGraphic" in2="effect1_dropShadow_388_1995" result="shape"/>
</filter>
</defs>
</svg>
