<svg width="375" height="250" viewBox="0 0 375 250" fill="none" xmlns="http://www.w3.org/2000/svg">
<path d="M187.5 150C228.921 150 262.5 116.421 262.5 75C262.5 33.5786 228.921 0 187.5 0C146.079 0 112.5 33.5786 112.5 75C112.5 116.421 146.079 150 187.5 150Z" fill="#D1E2FF"/>
<path d="M232.5 150H142.5V53C146.742 52.9952 150.809 51.308 153.808 48.3085C156.808 45.3089 158.495 41.242 158.5 37H216.5C216.496 39.1014 216.908 41.1828 217.713 43.1238C218.518 45.0648 219.7 46.8268 221.191 48.308C222.672 49.7991 224.434 50.9816 226.375 51.787C228.317 52.5924 230.398 53.0047 232.5 53V150Z" fill="#F4F4F5"/>
<path d="M187.5 102C200.755 102 211.5 91.2548 211.5 78C211.5 64.7452 200.755 54 187.5 54C174.245 54 163.5 64.7452 163.5 78C163.5 91.2548 174.245 102 187.5 102Z" fill="#1A6EFF"/>
<path d="M195.985 89.3139L187.5 80.8286L179.015 89.3139L176.186 86.4854L184.672 78.0002L176.186 69.5149L179.015 66.6865L187.5 75.1717L195.985 66.6865L198.814 69.5149L190.328 78.0002L198.814 86.4854L195.985 89.3139Z" fill="white"/>
<path d="M200.5 108H174.5C172.843 108 171.5 109.343 171.5 111C171.5 112.657 172.843 114 174.5 114H200.5C202.157 114 203.5 112.657 203.5 111C203.5 109.343 202.157 108 200.5 108Z" fill="#D1E2FF"/>
<path d="M209.5 120H165.5C163.843 120 162.5 121.343 162.5 123C162.5 124.657 163.843 126 165.5 126H209.5C211.157 126 212.5 124.657 212.5 123C212.5 121.343 211.157 120 209.5 120Z" fill="#D1E2FF"/>
<path d="M104.591 196.192C105.647 196.192 106.583 196.496 107.399 197.104C108.215 197.712 108.855 198.584 109.319 199.72C109.783 200.856 110.015 202.168 110.015 203.656C110.015 205.16 109.783 206.48 109.319 207.616C108.855 208.752 108.215 209.632 107.399 210.256C106.583 210.864 105.647 211.168 104.591 211.168C103.535 211.168 102.599 210.864 101.783 210.256C100.967 209.632 100.327 208.752 99.8625 207.616C99.3985 206.48 99.1665 205.16 99.1665 203.656C99.1665 202.168 99.3985 200.856 99.8625 199.72C100.327 198.584 100.967 197.712 101.783 197.104C102.599 196.496 103.535 196.192 104.591 196.192ZM104.591 198.328C103.967 198.328 103.415 198.544 102.935 198.976C102.455 199.408 102.079 200.024 101.807 200.824C101.551 201.624 101.423 202.568 101.423 203.656C101.423 204.76 101.551 205.72 101.807 206.536C102.079 207.336 102.455 207.952 102.935 208.384C103.431 208.816 103.983 209.032 104.591 209.032C105.215 209.032 105.767 208.816 106.247 208.384C106.727 207.952 107.095 207.336 107.351 206.536C107.623 205.72 107.759 204.76 107.759 203.656C107.759 202.568 107.623 201.624 107.351 200.824C107.095 200.024 106.727 199.408 106.247 198.976C105.767 198.544 105.215 198.328 104.591 198.328ZM115.391 194.632V215.872H113.015V194.632H115.391ZM118.703 202.936V204.904H114.839V202.936H118.703ZM127.271 196.816V198.376C127.271 199.688 127.031 200.92 126.551 202.072C126.087 203.224 125.407 204.224 124.511 205.072C123.615 205.92 122.543 206.56 121.295 206.992L120.095 205.168C121.183 204.8 122.119 204.272 122.903 203.584C123.687 202.88 124.287 202.08 124.703 201.184C125.119 200.272 125.327 199.336 125.327 198.376V196.816H127.271ZM127.727 196.816V198.376C127.727 199.288 127.935 200.168 128.351 201.016C128.783 201.848 129.391 202.6 130.175 203.272C130.975 203.928 131.903 204.432 132.959 204.784L131.759 206.608C130.543 206.208 129.487 205.6 128.591 204.784C127.695 203.968 127.007 203.016 126.527 201.928C126.047 200.824 125.807 199.64 125.807 198.376V196.816H127.727ZM137.375 194.632V207.448H134.999V194.632H137.375ZM137.375 208.528V215.872H134.999V210.424H123.095V208.528H137.375ZM132.311 196.024V197.92H120.719V196.024H132.311ZM153.803 196.96V199C153.803 200.312 153.563 201.544 153.083 202.696C152.603 203.848 151.915 204.856 151.019 205.72C150.123 206.568 149.051 207.208 147.803 207.64L146.603 205.792C147.691 205.424 148.627 204.896 149.411 204.208C150.211 203.504 150.819 202.704 151.235 201.808C151.651 200.912 151.859 199.976 151.859 199V196.96H153.803ZM154.259 196.96V199C154.259 199.928 154.467 200.816 154.883 201.664C155.315 202.496 155.923 203.24 156.707 203.896C157.491 204.552 158.419 205.056 159.491 205.408L158.267 207.232C157.051 206.832 155.995 206.224 155.099 205.408C154.219 204.592 153.539 203.632 153.059 202.528C152.579 201.424 152.339 200.248 152.339 199V196.96H154.259ZM158.843 196.288V198.184H147.251V196.288H158.843ZM163.907 194.656V210.112H161.507V194.656H163.907ZM164.507 213.52V215.44H150.059V213.52H164.507ZM152.411 208.672V214.432H150.059V208.672H152.411ZM185.339 194.632V208.024H183.107V194.632H185.339ZM183.731 200.2V202.12H179.963V200.2H183.731ZM180.827 195.064V207.28H178.595V195.064H180.827ZM177.851 197.032V198.904H167.243V197.032H177.851ZM172.571 199.816C173.467 199.816 174.251 199.968 174.923 200.272C175.611 200.576 176.147 201.008 176.531 201.568C176.915 202.128 177.107 202.76 177.107 203.464C177.107 204.2 176.915 204.848 176.531 205.408C176.147 205.952 175.611 206.376 174.923 206.68C174.251 206.984 173.467 207.136 172.571 207.136C171.691 207.136 170.907 206.984 170.219 206.68C169.531 206.376 168.995 205.952 168.611 205.408C168.243 204.848 168.059 204.2 168.059 203.464C168.059 202.76 168.251 202.128 168.635 201.568C169.019 201.008 169.547 200.576 170.219 200.272C170.907 199.968 171.691 199.816 172.571 199.816ZM172.571 201.544C171.835 201.544 171.243 201.72 170.795 202.072C170.347 202.408 170.123 202.872 170.123 203.464C170.123 204.072 170.347 204.552 170.795 204.904C171.259 205.256 171.851 205.432 172.571 205.432C173.291 205.432 173.883 205.256 174.347 204.904C174.811 204.552 175.043 204.072 175.043 203.464C175.043 202.872 174.811 202.408 174.347 202.072C173.883 201.72 173.291 201.544 172.571 201.544ZM173.723 194.824V198.184H171.419V194.824H173.723ZM178.283 208.336C180.539 208.336 182.299 208.664 183.563 209.32C184.827 209.976 185.459 210.904 185.459 212.104C185.459 213.288 184.827 214.208 183.563 214.864C182.299 215.52 180.539 215.848 178.283 215.848C176.027 215.848 174.267 215.52 173.003 214.864C171.755 214.208 171.131 213.288 171.131 212.104C171.131 210.904 171.755 209.976 173.003 209.32C174.251 208.664 176.011 208.336 178.283 208.336ZM178.283 210.112C176.715 210.112 175.515 210.28 174.683 210.616C173.867 210.952 173.459 211.448 173.459 212.104C173.459 212.744 173.867 213.232 174.683 213.568C175.515 213.888 176.715 214.048 178.283 214.048C179.835 214.048 181.027 213.888 181.859 213.568C182.691 213.232 183.107 212.744 183.107 212.104C183.107 211.448 182.691 210.952 181.859 210.616C181.027 210.28 179.835 210.112 178.283 210.112ZM204.828 194.632V215.872H202.476V194.632H204.828ZM208.14 203.2V205.168H204.276V203.2H208.14ZM200.748 197.92V199.84H188.244V197.92H200.748ZM194.556 201.4C195.564 201.4 196.468 201.608 197.268 202.024C198.068 202.44 198.692 203.024 199.14 203.776C199.588 204.528 199.812 205.376 199.812 206.32C199.812 207.296 199.58 208.16 199.116 208.912C198.668 209.648 198.044 210.232 197.244 210.664C196.46 211.08 195.572 211.288 194.58 211.288C193.572 211.288 192.668 211.08 191.868 210.664C191.068 210.232 190.436 209.64 189.972 208.888C189.524 208.136 189.3 207.288 189.3 206.344C189.3 205.384 189.524 204.528 189.972 203.776C190.436 203.024 191.068 202.44 191.868 202.024C192.668 201.608 193.564 201.4 194.556 201.4ZM194.556 203.32C193.98 203.32 193.46 203.448 192.996 203.704C192.548 203.96 192.196 204.312 191.94 204.76C191.7 205.208 191.58 205.736 191.58 206.344C191.58 206.936 191.7 207.464 191.94 207.928C192.196 208.376 192.548 208.728 192.996 208.984C193.46 209.224 193.98 209.344 194.556 209.344C195.132 209.344 195.644 209.224 196.092 208.984C196.556 208.728 196.916 208.376 197.172 207.928C197.428 207.464 197.556 206.936 197.556 206.344C197.556 205.752 197.428 205.232 197.172 204.784C196.916 204.32 196.556 203.96 196.092 203.704C195.644 203.448 195.132 203.32 194.556 203.32ZM195.732 194.92V198.736H193.356V194.92H195.732ZM224.941 196.624V198.544H211.333V196.624H224.941ZM228.541 211.096V213.04H209.341V211.096H228.541ZM218.893 203.632V212.08H216.565V203.632H218.893ZM226.405 196.624V198.712C226.405 200.52 226.365 202.152 226.285 203.608C226.205 205.048 225.989 206.736 225.637 208.672L223.261 208.408C223.613 206.568 223.829 204.936 223.909 203.512C224.005 202.088 224.053 200.488 224.053 198.712V196.624H226.405ZM242.76 207.64V208.6C242.76 209.608 242.576 210.568 242.208 211.48C241.84 212.392 241.296 213.208 240.576 213.928C239.856 214.648 238.992 215.2 237.984 215.584L236.808 213.832C237.688 213.528 238.44 213.096 239.064 212.536C239.688 211.976 240.16 211.36 240.48 210.688C240.8 210 240.96 209.304 240.96 208.6V207.64H242.76ZM243.216 207.64V208.6C243.216 209.736 243.528 210.8 244.152 211.792C244.792 212.784 245.736 213.528 246.984 214.024L246.024 215.776C244.52 215.2 243.392 214.264 242.64 212.968C241.888 211.656 241.512 210.2 241.512 208.6V207.64H243.216ZM250.488 207.64V208.6C250.488 209.544 250.32 210.488 249.984 211.432C249.664 212.36 249.168 213.216 248.496 214C247.824 214.784 247 215.376 246.024 215.776L245.016 214.024C245.832 213.656 246.52 213.168 247.08 212.56C247.64 211.952 248.056 211.304 248.328 210.616C248.616 209.928 248.76 209.256 248.76 208.6V207.64H250.488ZM251.064 207.64V208.6C251.064 209.352 251.224 210.072 251.544 210.76C251.864 211.448 252.336 212.064 252.96 212.608C253.584 213.136 254.336 213.544 255.216 213.832L254.064 215.584C252.512 215.04 251.32 214.144 250.488 212.896C249.672 211.648 249.264 210.216 249.264 208.6V207.64H251.064ZM253.368 194.656V206.728H250.968V194.656H253.368ZM241.896 195.832C242.968 195.832 243.928 196.048 244.776 196.48C245.64 196.896 246.312 197.488 246.792 198.256C247.272 199.008 247.512 199.864 247.512 200.824C247.512 201.8 247.272 202.664 246.792 203.416C246.312 204.168 245.64 204.76 244.776 205.192C243.928 205.608 242.968 205.816 241.896 205.816C240.824 205.816 239.856 205.608 238.992 205.192C238.144 204.76 237.48 204.168 237 203.416C236.52 202.664 236.28 201.8 236.28 200.824C236.28 199.864 236.52 199.008 237 198.256C237.48 197.488 238.144 196.896 238.992 196.48C239.856 196.048 240.824 195.832 241.896 195.832ZM241.896 197.776C241.272 197.776 240.704 197.904 240.192 198.16C239.68 198.416 239.28 198.776 238.992 199.24C238.704 199.704 238.56 200.232 238.56 200.824C238.56 201.432 238.704 201.968 238.992 202.432C239.28 202.896 239.672 203.256 240.168 203.512C240.68 203.752 241.256 203.872 241.896 203.872C242.536 203.872 243.104 203.752 243.6 203.512C244.112 203.256 244.512 202.896 244.8 202.432C245.088 201.968 245.232 201.432 245.232 200.824C245.232 200.232 245.088 199.704 244.8 199.24C244.512 198.776 244.112 198.416 243.6 198.16C243.104 197.904 242.536 197.776 241.896 197.776ZM273.865 200.776V202.672H259.345V200.776H273.865ZM276.073 205.264V207.184H256.825V205.264H276.073ZM261.673 195.4V201.712H259.345V195.4H261.673ZM273.985 213.472V215.392H259.177V213.472H273.985ZM261.529 209.128V213.976H259.177V209.128H261.529ZM113.908 228.208V230.104H108.556V228.208H113.908ZM115.252 224.632V235.528H112.9V224.632H115.252ZM115.252 236.536V241.864H103.804V244.888H101.476V240.136H112.924V238.384H101.452V236.536H115.252ZM115.972 243.76V245.608H101.476V243.76H115.972ZM104.716 225.304V227.104C104.716 228.432 104.484 229.664 104.02 230.8C103.556 231.92 102.884 232.896 102.004 233.728C101.124 234.56 100.068 235.184 98.8363 235.6L97.6123 233.752C98.6843 233.4 99.6123 232.896 100.396 232.24C101.18 231.568 101.772 230.792 102.172 229.912C102.588 229.016 102.796 228.08 102.796 227.104V225.304H104.716ZM105.148 225.304V227.104C105.148 228 105.348 228.864 105.748 229.696C106.148 230.512 106.724 231.24 107.476 231.88C108.244 232.52 109.14 233.008 110.164 233.344L108.964 235.168C107.78 234.752 106.756 234.152 105.892 233.368C105.028 232.568 104.364 231.632 103.9 230.56C103.452 229.488 103.228 228.336 103.228 227.104V225.304H105.148ZM137.885 235.384V237.256H118.637V235.384H137.885ZM129.629 236.536V241.288H127.253V236.536H129.629ZM135.413 225.592V233.224H121.085V225.592H135.413ZM123.389 227.464V231.328H133.085V227.464H123.389ZM135.749 243.544V245.464H121.013V243.544H135.749ZM123.365 239.32V244.192H121.013V239.32H123.365ZM158.885 241.288V243.232H139.637V241.288H158.885ZM150.437 236.32V241.888H148.085V236.32H150.437ZM150.029 227.344V228.448C150.029 229.872 149.637 231.192 148.853 232.408C148.085 233.608 147.053 234.624 145.757 235.456C144.461 236.272 143.029 236.832 141.461 237.136L140.501 235.264C141.845 235.056 143.093 234.616 144.245 233.944C145.397 233.256 146.309 232.432 146.981 231.472C147.669 230.496 148.013 229.488 148.013 228.448V227.344H150.029ZM150.461 227.344V228.448C150.461 229.488 150.805 230.488 151.493 231.448C152.181 232.408 153.109 233.216 154.277 233.872C155.445 234.528 156.709 234.968 158.069 235.192L157.133 237.04C155.549 236.736 154.093 236.184 152.765 235.384C151.453 234.584 150.405 233.584 149.621 232.384C148.853 231.184 148.469 229.872 148.469 228.448V227.344H150.461ZM157.229 226.432V228.352H141.245V226.432H157.229ZM167.574 226.408V229.912C167.574 231.544 167.334 233.128 166.854 234.664C166.374 236.184 165.686 237.536 164.79 238.72C163.91 239.904 162.878 240.8 161.694 241.408L160.278 239.488C161.334 238.976 162.27 238.216 163.086 237.208C163.918 236.2 164.55 235.064 164.982 233.8C165.43 232.52 165.654 231.224 165.654 229.912V226.408H167.574ZM167.982 226.408V229.912C167.982 231.176 168.198 232.424 168.63 233.656C169.078 234.872 169.694 235.96 170.478 236.92C171.262 237.88 172.174 238.616 173.214 239.128L171.774 241C170.622 240.408 169.614 239.544 168.75 238.408C167.902 237.272 167.246 235.968 166.782 234.496C166.334 233.024 166.11 231.496 166.11 229.912V226.408H167.982ZM177.054 224.632V245.872H174.678V224.632H177.054ZM180.39 233.08V235.048H176.526V233.08H180.39ZM198.031 224.608V245.872H195.655V224.608H198.031ZM201.271 233.056V235H197.431V233.056H201.271ZM192.487 226.864C192.487 230.112 191.719 233.024 190.183 235.6C188.663 238.16 186.239 240.28 182.911 241.96L181.591 240.16C183.511 239.184 185.103 238.056 186.367 236.776C187.647 235.496 188.599 234.064 189.223 232.48C189.863 230.896 190.183 229.16 190.183 227.272V226.864H192.487ZM191.407 226.864V228.784H182.647V226.864H191.407ZM212.706 237.088V239.512H215.802V237.088H218.01V245.608H210.498V237.088H212.706ZM212.706 243.808H215.802V241.264H212.706V243.808ZM223.626 236.944V238.648C223.626 240.216 223.25 241.648 222.498 242.944C221.746 244.24 220.65 245.192 219.21 245.8L218.058 244.024C218.874 243.688 219.562 243.232 220.122 242.656C220.682 242.08 221.098 241.448 221.37 240.76C221.658 240.056 221.802 239.352 221.802 238.648V236.944H223.626ZM224.106 236.944V238.648C224.106 239.4 224.242 240.136 224.514 240.856C224.802 241.56 225.226 242.192 225.786 242.752C226.362 243.296 227.066 243.72 227.898 244.024L226.722 245.8C225.25 245.208 224.146 244.28 223.41 243.016C222.69 241.752 222.33 240.296 222.33 238.648V236.944H224.106ZM224.346 229.456V231.376H218.802V229.456H224.346ZM213.93 225.52C214.986 225.52 215.93 225.728 216.762 226.144C217.594 226.56 218.25 227.144 218.73 227.896C219.21 228.648 219.45 229.496 219.45 230.44C219.45 231.4 219.21 232.256 218.73 233.008C218.25 233.76 217.586 234.344 216.738 234.76C215.906 235.176 214.97 235.384 213.93 235.384C212.874 235.384 211.922 235.176 211.074 234.76C210.242 234.344 209.586 233.76 209.106 233.008C208.642 232.256 208.41 231.4 208.41 230.44C208.41 229.48 208.642 228.632 209.106 227.896C209.586 227.144 210.242 226.56 211.074 226.144C211.922 225.728 212.874 225.52 213.93 225.52ZM213.93 227.464C213.306 227.464 212.746 227.592 212.25 227.848C211.754 228.088 211.37 228.44 211.098 228.904C210.826 229.352 210.69 229.864 210.69 230.44C210.69 231.032 210.826 231.56 211.098 232.024C211.37 232.472 211.754 232.824 212.25 233.08C212.746 233.32 213.306 233.44 213.93 233.44C214.554 233.44 215.114 233.32 215.61 233.08C216.106 232.824 216.49 232.472 216.762 232.024C217.05 231.56 217.194 231.032 217.194 230.44C217.194 229.864 217.05 229.352 216.762 228.904C216.49 228.44 216.106 228.088 215.61 227.848C215.114 227.592 214.554 227.464 213.93 227.464ZM225.69 224.632V235.864H223.338V224.632H225.69ZM234.787 226.192C235.811 226.192 236.731 226.496 237.547 227.104C238.363 227.712 238.995 228.584 239.443 229.72C239.907 230.856 240.139 232.168 240.139 233.656C240.139 235.16 239.907 236.48 239.443 237.616C238.995 238.752 238.363 239.632 237.547 240.256C236.747 240.864 235.819 241.168 234.763 241.168C233.739 241.168 232.819 240.864 232.003 240.256C231.187 239.632 230.547 238.752 230.083 237.616C229.635 236.48 229.411 235.16 229.411 233.656C229.411 232.168 229.635 230.856 230.083 229.72C230.547 228.584 231.187 227.712 232.003 227.104C232.819 226.496 233.747 226.192 234.787 226.192ZM234.787 228.328C234.163 228.328 233.611 228.544 233.131 228.976C232.667 229.408 232.299 230.024 232.027 230.824C231.771 231.624 231.643 232.568 231.643 233.656C231.643 234.76 231.771 235.72 232.027 236.536C232.299 237.336 232.667 237.952 233.131 238.384C233.611 238.816 234.155 239.032 234.763 239.032C235.387 239.032 235.939 238.816 236.419 238.384C236.899 237.952 237.267 237.336 237.523 236.536C237.779 235.72 237.907 234.76 237.907 233.656C237.907 232.568 237.779 231.624 237.523 230.824C237.267 230.024 236.899 229.408 236.419 228.976C235.939 228.544 235.395 228.328 234.787 228.328ZM246.667 224.608V245.896H244.315V224.608H246.667ZM245.347 232.552V234.448H239.395V232.552H245.347ZM256.94 235.48V241.696H254.588V235.48H256.94ZM264.74 235.48V241.696H262.388V235.48H264.74ZM269.3 241.312V243.232H250.052V241.312H269.3ZM259.652 225.832C261.156 225.832 262.5 226.064 263.684 226.528C264.868 226.976 265.788 227.624 266.444 228.472C267.116 229.32 267.452 230.296 267.452 231.4C267.452 232.504 267.116 233.48 266.444 234.328C265.788 235.16 264.868 235.808 263.684 236.272C262.5 236.72 261.156 236.944 259.652 236.944C258.148 236.944 256.804 236.72 255.62 236.272C254.436 235.808 253.508 235.16 252.836 234.328C252.18 233.48 251.852 232.504 251.852 231.4C251.852 230.296 252.18 229.32 252.836 228.472C253.508 227.624 254.436 226.976 255.62 226.528C256.804 226.064 258.148 225.832 259.652 225.832ZM259.652 227.704C258.58 227.704 257.628 227.856 256.796 228.16C255.964 228.448 255.316 228.872 254.852 229.432C254.388 229.992 254.156 230.648 254.156 231.4C254.156 232.152 254.38 232.808 254.828 233.368C255.292 233.912 255.94 234.336 256.772 234.64C257.62 234.944 258.58 235.096 259.652 235.096C260.724 235.096 261.676 234.944 262.508 234.64C263.34 234.336 263.988 233.912 264.452 233.368C264.916 232.808 265.148 232.152 265.148 231.4C265.148 230.648 264.908 229.992 264.428 229.432C263.964 228.872 263.316 228.448 262.484 228.16C261.668 227.856 260.724 227.704 259.652 227.704ZM275.276 239.488H273.116L272.708 226.144H275.636L275.276 239.488ZM274.22 241.696C274.62 241.696 274.948 241.824 275.204 242.08C275.46 242.32 275.588 242.648 275.588 243.064C275.588 243.496 275.46 243.84 275.204 244.096C274.948 244.352 274.62 244.48 274.22 244.48C273.804 244.48 273.46 244.344 273.188 244.072C272.932 243.816 272.804 243.48 272.804 243.064C272.804 242.648 272.932 242.32 273.188 242.08C273.46 241.824 273.804 241.696 274.22 241.696Z" fill="#171717"/>
</svg>
